<svg width="25" height="24" viewBox="0 0 25 24"
     fill="none" xmlns="http://www.w3.org/2000/svg">
<path fill-rule="evenodd" clip-rule="evenodd"
      d="M21.8499 12C21.8499 17.302 17.5518 21.6 12.2499 21.6C6.94797 21.6 2.6499 17.302 2.6499 12C2.6499 6.69809 6.94797 2.40002 12.2499 2.40002C17.5518 2.40002 21.8499 6.69809 21.8499 12ZM14.6499 8.40002C14.6499 9.72551 13.5754 10.8 12.2499 10.8C10.9244 10.8 9.8499 9.72551 9.8499 8.40002C9.8499 7.07454 10.9244 6.00002 12.2499 6.00002C13.5754 6.00002 14.6499 7.07454 14.6499 8.40002ZM12.2498 13.2C9.82877 13.2 7.74264 14.634 6.79438 16.6989C8.11474 18.2305 10.0691 19.2 12.2499 19.2C14.4306 19.2 16.3849 18.2305 17.7053 16.699C16.7571 14.634 14.6709 13.2 12.2498 13.2Z"
      fill="#AFAFAF"/>
</svg>
