<svg width="17" height="17" viewBox="0 0 17 17" fill="none" xmlns="http://www.w3.org/2000/svg">
<path fill-rule="evenodd" clip-rule="evenodd" d="M7.02361 9.26685C6.76104 8.89697 6.50332 8.53243 6.23305 8.16795C5.95587 7.79419 6.14279 7.6608 6.36744 7.32097C6.53092 7.07267 6.68073 6.83491 6.83196 6.57892C6.93987 6.39611 7.11218 6.41962 7.3093 6.42165C7.58883 6.42438 7.86644 6.42489 8.14598 6.42489C8.42253 6.42476 8.69908 6.42476 8.9757 6.42463C9.24908 6.42463 9.51152 6.42 9.78422 6.41517C10.1051 6.40945 10.1722 6.59207 10.331 6.85098C10.4848 7.10043 10.6351 7.31709 10.7959 7.55834C11.0128 7.88338 10.8763 8.02001 10.6604 8.30286C10.3164 8.7536 9.97698 9.24893 9.64454 9.71263C9.48852 9.93031 9.33256 10.1479 9.17654 10.3655C9.01598 10.5897 8.8648 10.8068 8.70859 11.0338C8.47045 11.3795 8.38188 11.2083 8.19415 10.9232C7.92307 10.5111 7.60387 10.0842 7.31626 9.67903C7.21879 9.54163 7.1212 9.40424 7.02361 9.26685Z" fill="#07A0EC"/>
<circle cx="8.5" cy="8.5" r="6.33491" stroke="#07A0EC" stroke-width="4.33019"/>
<circle cx="8.50014" cy="8.50014" r="6.57547" stroke="white" stroke-width="1.92453" stroke-dasharray="3.37 3.37"/>
</svg>
