<svg width="25" height="24" viewBox="0 0 25 24"
     fill="none" xmlns="http://www.w3.org/2000/svg">
<path
        d="M13.5984 2.7515C13.1298 2.28287 12.37 2.28287 11.9014 2.7515L3.50137 11.1515C3.03275 11.6201 3.03275 12.3799 3.50137
        12.8486C3.97 13.3172 4.7298 13.3172 5.19843 12.8486L5.5499 12.4971V20.4C5.5499 21.0628 6.08716 21.6 6.7499 21.6H9.1499C9.81264
        21.6 10.3499 21.0628 10.3499 20.4V18C10.3499 17.3373 10.8872 16.8 11.5499 16.8H13.9499C14.6126 16.8 15.1499 17.3373 15.1499 18V20.4C15.1499
        21.0628 15.6872 21.6 16.3499 21.6H18.7499C19.4126 21.6 19.9499 21.0628 19.9499 20.4V12.4971L20.3014 12.8486C20.77 13.3172 21.5298 13.3172 21.9984
        12.8486C22.4671 12.3799 22.4671 11.6201 21.9984 11.1515L13.5984 2.7515Z"
        fill="#AFAFAF"/>
</svg>
